<svg xmlns="http://www.w3.org/2000/svg" width="512" height="512" viewBox="0 0 512 512" fill="none">
  <defs>
    <linearGradient id="bg" x1="96" y1="64" x2="416" y2="448" gradientUnits="userSpaceOnUse">
      <stop stop-color="#0b1220"/>
      <stop offset="0.55" stop-color="#07101f"/>
      <stop offset="1" stop-color="#020617"/>
    </linearGradient>
    <linearGradient id="g" x1="156" y1="152" x2="356" y2="360" gradientUnits="userSpaceOnUse">
      <stop stop-color="#22D3EE"/>
      <stop offset="0.55" stop-color="#7DD3FC"/>
      <stop offset="1" stop-color="#A855F7"/>
    </linearGradient>
    <filter id="glow" x="-40%" y="-40%" width="180%" height="180%">
      <feGaussianBlur stdDeviation="8" result="blur"/>
      <feColorMatrix in="blur" type="matrix" values="
        1 0 0 0 0
        0 1 0 0 0
        0 0 1 0 0
        0 0 0 0.85 0" result="glow"/>
      <feMerge>
        <feMergeNode in="glow"/>
        <feMergeNode in="SourceGraphic"/>
      </feMerge>
    </filter>
  </defs>

  <rect x="56" y="56" width="400" height="400" rx="96" fill="url(#bg)"/>
  <rect x="56" y="56" width="400" height="400" rx="96" stroke="rgba(196,181,253,0.28)" stroke-width="8"/>

  <g filter="url(#glow)">
    <path
      d="M184 310c26 22 58 34 92 34 34 0 66-12 92-34"
      stroke="url(#g)"
      stroke-width="26"
      stroke-linecap="round"
    />
    <path
      d="M208 300c-14-20-22-44-22-70 0-40 18-76 48-100"
      stroke="rgba(34,211,238,0.75)"
      stroke-width="18"
      stroke-linecap="round"
    />
    <path
      d="M304 130c30 24 48 60 48 100 0 26-8 50-22 70"
      stroke="rgba(168,85,247,0.70)"
      stroke-width="18"
      stroke-linecap="round"
    />
    <circle cx="256" cy="230" r="16" fill="#ECFEFF"/>
    <path
      d="M256 246v40"
      stroke="#ECFEFF"
      stroke-width="12"
      stroke-linecap="round"
    />
  </g>
</svg>
